<?xml version="1.0" encoding="UTF-8"?>
<svg width="1200pt" height="1200pt" version="1.1" viewBox="0 0 1200 1200" xmlns="http://www.w3.org/2000/svg">
 <g fill="#3b6af9">
  <path d="m60 610.97c0 514.25 402.68 516.97 462.54 516.97v-259.38c-81.227-112.61-221.57-226.05-462.54-257.59z"/>
  <path d="m544.49 1106s14.879-129.13 108.83-259.37v-177.28c-10.691 0.82812-21.504 1.3086-32.473 1.3086 6.3125 0 12.551-0.68359 18.695-1.9688-13.309 1.2852-26.867 1.9688-40.645 1.9688-13.754 0-27.312-0.68359-40.633-1.9688 6.1445 1.2852 12.371 1.9688 18.695 1.9688-10.969 0-21.781-0.48047-32.473-1.3086v177.27z"/>
  <path d="m809.99 134.63c-33.059-43.066-65.242-69.469-65.242-69.469s-21.574 17.711-47.543 47.762c27.254 37.738 53.438 84.457 66.371 136.38 21.621-42.074 36.562-82.777 46.414-114.67z"/>
  <path d="m500.59 112.92c-25.969-30.047-47.543-47.746-47.543-47.746s-32.184 26.387-65.23 69.469c9.8516 31.906 24.793 72.602 46.402 114.68 12.945-51.953 39.129-98.668 66.371-136.41z"/>
  <path d="m653.32 657.35c7.3789-0.5625 14.711-1.2852 21.938-2.2305 171.82-22.57 299.29-150.23 299.29-295.75 0-152.36-136.04-244.87-136.04-244.87s-4.5352 25.656-16.379 64.02c-9.8633 31.906-24.793 72.602-46.414 114.68 5.293 21.277 8.375 43.414 8.375 66.18 0 154.29-63.48 280.34-144.55 297.32 4.6211-0.45703 9.2266-0.97266 13.777-1.5703l-0.007812 2.2188z"/>
  <path d="m653.32 669.35v-2.2305c-4.5586 0.60156-9.168 1.1172-13.777 1.5703-6.1445 1.2852-12.371 1.9688-18.695 1.9688 10.969 0 21.793-0.46875 32.473-1.3086z"/>
  <path d="m558.27 656.69c-81.059-16.992-144.55-143.04-144.55-297.32 0-22.766 3.0859-44.902 8.3867-66.18-21.613-42.07-36.551-82.777-46.414-114.68-11.855-38.363-16.391-64.02-16.391-64.02-0.003906 0-136.05 92.52-136.05 244.88 0 145.54 127.48 273.19 299.29 295.75 7.2344 0.94922 14.555 1.668 21.949 2.2305v-2.2305c4.5586 0.59766 9.168 1.125 13.777 1.5703z"/>
  <path d="m558.27 668.69c-4.6211-0.45703-9.2266-0.97266-13.777-1.5703v2.2305c10.691 0.82812 21.504 1.3086 32.473 1.3086-6.3125 0-12.555-0.68359-18.695-1.9688z"/>
  <path d="m762.16 359.36c0-22.766-3.0859-44.902-8.375-66.18-12.938-51.926-39.133-98.652-66.359-136.39-42.973-59.531-88.512-96.73-88.512-96.73s-45.527 37.199-88.5 96.73c-27.238 37.738-53.438 84.469-66.371 136.39-5.293 21.277-8.3867 43.414-8.3867 66.18 0 165.97 73.465 299.29 163.25 299.29 89.793 0 163.26-133.32 163.26-299.29z"/>
  <path d="m677.45 868.56c-93.949 130.25-108.83 259.38-108.83 259.38h108.83c59.855 0.003906 462.55-2.7227 462.55-516.97-240.97 31.535-381.31 144.98-462.55 257.59z"/>
 </g>
</svg>
